# xmcd
#
# Track frame offsets:
#	150
#	17762
#	40642
#	61635
#	76742
#	108007
#	128432
#	144665
#	172682
#	184070
#	213192
#	236905
#	256292
#	270597
#
# Disc length: 3979 seconds
#
# Revision: 1
# Processed by: cddbd v1.4PL0 Copyright (c) Steve Scherf et al.
# Submitted via: audiograbber 1.81.02
#
DISCID=a60f890e
DTITLE=Woody Woodhouse - Cookin' with Wood Works
DYEAR=1900
DGENRE=Blues
TTITLE0=This Masquerade
TTITLE1=Baltimore Oriole
TTITLE2=I'm in a Phone Booth
TTITLE3=When Sunny Gets Blue
TTITLE4=Sunny
TTITLE5=Gun
TTITLE6=Close your Eyes
TTITLE7=Lately
TTITLE8=Sweet Lorraine
TTITLE9=Call the Plumber
TTITLE10=A Man Ain't Supposed to Cry
TTITLE11=Great City
TTITLE12=The Snake
TTITLE13=Medley Here's One
EXTD=
EXTT0=
EXTT1=
EXTT2=
EXTT3=
EXTT4=
EXTT5=
EXTT6=
EXTT7=
EXTT8=
EXTT9=
EXTT10=
EXTT11=
EXTT12=
EXTT13=
PLAYORDER=
